# xmcd CD database file
#
# Track frame offsets:
#	150
#	16438
#	31119
#	44744
#	60833
#	73899
#	94466
#	99976
#	117126
#	131243
#	146553
#	157765
#	174726
#
# Disc length: 2532 seconds
#
# Revision: 0
# Processed by: cddbd v1.5.2PL0 Copyright (c) Steve Scherf et al.
# Submitted via: CDex 1.70
#
DISCID=b109e20d
DTITLE=Great Plains - Kit and Kaboodle
DYEAR=1900
DGENRE=Country
TTITLE0=If I Needed You
TTITLE1=Rodeo
TTITLE2=Newlyweds
TTITLE3=Louis Riel
TTITLE4=Spring Day In Holland
TTITLE5=Porchlight
TTITLE6=Swiss Yodel
TTITLE7=Hallelujah
TTITLE8=Prairie Town
TTITLE9=Adeline
TTITLE10=Plaisir D'Amour
TTITLE11=Hell Or High Water
TTITLE12=Laura's Kitchen
EXTD=
EXTT0=
EXTT1=
EXTT2=
EXTT3=
EXTT4=
EXTT5=
EXTT6=
EXTT7=
EXTT8=
EXTT9=
EXTT10=
EXTT11=
EXTT12=
PLAYORDER=
